<svg viewBox="0 0 100 100" xmlns="http://www.w3.org/2000/svg">
  <!-- Background circle -->
  <circle cx="50" cy="50" r="45" fill="#2D5016" stroke="#4A7C23" stroke-width="4"/>
  
  <!-- Main bug body -->
  <ellipse cx="50" cy="50" rx="28" ry="18" fill="#8BC34A"/>
  
  <!-- Bug head -->
  <circle cx="32" cy="42" r="10" fill="#689F38"/>
  
  <!-- Bug spots -->
  <circle cx="45" cy="45" r="4" fill="#4A7C23"/>
  <circle cx="58" cy="48" r="3.5" fill="#4A7C23"/>
  <circle cx="65" cy="55" r="3" fill="#4A7C23"/>
  
  <!-- Bug antennae -->
  <line x1="26" y1="35" x2="18" y2="25" stroke="#4A7C23" stroke-width="3" stroke-linecap="round"/>
  <line x1="30" y1="33" x2="22" y2="23" stroke="#4A7C23" stroke-width="3" stroke-linecap="round"/>
  <circle cx="18" cy="25" r="2" fill="#FF5722"/>
  <circle cx="22" cy="23" r="2" fill="#FF5722"/>
  
  <!-- Bug legs -->
  <line x1="35" y1="65" x2="28" y2="78" stroke="#4A7C23" stroke-width="3" stroke-linecap="round"/>
  <line x1="50" y1="68" x2="43" y2="81" stroke="#4A7C23" stroke-width="3" stroke-linecap="round"/>
  <line x1="65" y1="65" x2="72" y2="78" stroke="#4A7C23" stroke-width="3" stroke-linecap="round"/>
  
  <!-- Wings -->
  <ellipse cx="58" cy="35" rx="12" ry="6" fill="#E8F5E8" opacity="0.8" transform="rotate(15 58 35)"/>
  <ellipse cx="65" cy="42" rx="10" ry="5" fill="#E8F5E8" opacity="0.8" transform="rotate(25 65 42)"/>
  
  <!-- Eyes -->
  <circle cx="28" cy="38" r="2" fill="#2D5016"/>
  <circle cx="36" cy="40" r="2" fill="#2D5016"/>
</svg>